# xmcd
#
# Track frame offsets:
#	150
#	14109
#	20310
#	42059
#	63831
#	69744
#	95854
#	113238
#	160414
#	170260
#	184184
#
# Disc length: 2800 seconds
#
# Revision: 1
# Processed by: cddbd v1.5.1PL0 Copyright (c) Steve Scherf et al.
# Submitted via: audiograbber 1.83.01
#
DISCID=930aee0b
DTITLE=Michael "Blind Dog" Gatewood - I Hear The Blues Callin' And The Devil Is
DTITLE=Near
DYEAR=2003
DGENRE=Blues
TTITLE0=Telluride
TTITLE1=Harpoon
TTITLE2=One Kind Favor
TTITLE3=Hold Dat' Bus
TTITLE4=I Hear The Blues Callin' And The Devil Is Near
TTITLE5=Monkey On My Back
TTITLE6=River Of Blood
TTITLE7=Flip Flop Fly, Hootchie Cootchie Man
TTITLE8=Street Corner Stomp
TTITLE9=Hey Bartender
TTITLE10=Papa Was A Jockey
EXTD=
EXTT0=
EXTT1=
EXTT2=
EXTT3=
EXTT4=
EXTT5=
EXTT6=
EXTT7=
EXTT8=
EXTT9=
EXTT10=
PLAYORDER=
